<?xml version="1.0" standalone="no"?>
<!DOCTYPE svg PUBLIC "-//W3C//DTD SVG 20010904//EN"
 "http://www.w3.org/TR/2001/REC-SVG-20010904/DTD/svg10.dtd">
<svg version="1.0" xmlns="http://www.w3.org/2000/svg"
 width="300.000000pt" height="300.000000pt" viewBox="0 0 300.000000 300.000000"
 preserveAspectRatio="xMidYMid meet">
<metadata>
Created by potrace 1.10, written by Peter Selinger 2001-2011
</metadata>
<g transform="translate(0.000000,300.000000) scale(0.100000,-0.100000)"
fill="blue" stroke="red">
<path d="M1620 2804 c-75 -20 -136 -62 -222 -152 -127 -133 -224 -305 -297
-527 -39 -118 -91 -332 -91 -374 0 -11 -6 -21 -13 -21 -6 0 -57 22 -112 49
-117 58 -218 135 -296 228 -53 62 -75 95 -144 218 -36 63 -44 42 -15 -38 57
-159 198 -394 431 -718 l98 -137 -9 -144 c-5 -79 -11 -188 -15 -243 -14 -246
-64 -401 -162 -506 -25 -26 -64 -57 -87 -69 -55 -26 -146 -27 -201 -1 -90 42
-164 161 -188 306 -14 85 -30 101 -35 35 -8 -102 39 -238 109 -314 67 -74 124
-100 215 -100 93 0 181 41 251 118 122 133 174 302 204 661 6 77 12 141 13
142 1 2 19 -19 38 -45 83 -108 334 -339 358 -330 4 2 39 44 78 94 38 50 84
102 101 117 59 49 29 58 -36 11 -17 -13 -34 -24 -37 -24 -9 0 62 159 116 260
75 141 242 385 224 328 -3 -10 -12 -87 -20 -170 -9 -84 -23 -229 -32 -323 -24
-235 -24 -637 -1 -760 18 -98 37 -155 61 -174 24 -20 26 1 9 95 -12 72 -14
140 -10 359 8 372 48 704 106 871 78 228 246 435 589 729 89 76 162 145 162
152 0 27 -23 23 -73 -13 -28 -20 -167 -126 -307 -234 -140 -108 -278 -213
-307 -233 l-51 -37 5 132 c10 232 -24 469 -84 596 -15 31 -47 79 -72 106 -74
79 -156 105 -251 80z m97 -65 c71 -26 130 -116 164 -247 28 -110 44 -347 35
-524 l-8 -147 -92 -39 c-183 -79 -293 -104 -471 -105 -71 0 -156 5 -187 12
-67 14 -65 -13 -12 229 39 180 80 303 139 427 97 201 229 353 340 393 40 14
58 14 92 1z m206 -189 c45 -115 59 -216 63 -445 2 -176 5 -211 18 -221 21 -15
20 -17 -9 -60 -32 -46 -34 -113 -5 -159 l20 -32 -25 -56 c-13 -31 -27 -67 -30
-79 -2 -13 -13 -59 -24 -103 l-19 -80 0 55 c-1 30 3 93 8 140 6 69 5 91 -8
119 -12 26 -13 37 -4 52 16 26 15 54 -3 69 -12 10 -10 18 18 52 l32 40 -1 252
c-1 266 -14 382 -56 491 -11 28 -15 46 -10 40 5 -5 21 -39 35 -75z m-818 -619
c-10 -50 -21 -94 -26 -97 -13 -8 -11 -119 3 -149 9 -21 9 -27 -5 -38 -26 -20
-37 -63 -48 -194 -9 -120 -9 -126 13 -164 l22 -39 -22 -15 c-26 -19 -42 -73
-42 -147 0 -31 -5 -60 -11 -64 -7 -4 -9 0 -5 12 3 11 6 84 7 164 1 116 -1 151
-14 175 -17 30 -14 37 33 85 3 3 5 12 5 20 0 8 4 50 8 93 6 61 5 82 -6 98 -13
18 -12 23 8 45 13 14 27 40 30 57 16 83 59 257 62 253 3 -2 -3 -45 -12 -95z
m1129 35 c-21 -25 -42 -46 -46 -46 -11 0 -113 -129 -154 -196 l-36 -59 6 49
c3 27 6 57 6 66 0 10 17 29 38 43 56 37 127 100 127 114 0 12 87 85 93 78 2
-2 -13 -24 -34 -49z m-1442 -213 c38 -25 98 -56 131 -70 34 -14 63 -26 65 -28
2 -1 -2 -51 -9 -111 l-12 -107 -24 29 c-36 43 -287 375 -297 393 -5 9 10 -1
33 -22 24 -21 74 -59 113 -84z m1066 -73 c-115 -126 -266 -361 -332 -516 -20
-46 -47 -122 -59 -169 l-23 -86 -95 93 c-52 51 -139 145 -193 208 l-97 114 6
76 c7 83 24 222 28 226 1 1 34 -5 72 -13 97 -21 341 -12 446 16 80 21 216 71
259 96 45 26 42 16 -12 -45z"/>
</g>
</svg>
